<?xml version="1.0" standalone="no"?><!DOCTYPE svg PUBLIC "-//W3C//DTD SVG 1.1//EN" "http://www.w3.org/Graphics/SVG/1.1/DTD/svg11.dtd"><svg t="1533261771994" class="icon" style="" viewBox="0 0 1024 1024" version="1.1" xmlns="http://www.w3.org/2000/svg" p-id="7423" xmlns:xlink="http://www.w3.org/1999/xlink" width="128" height="128"><defs><style type="text/css"></style></defs><path d="M916.262 898.667 107.72 898.667c-9.72 0-15.1 2.195-17.595 12.475-2.297 9.465 7.875 17.615 17.595 17.615l808.542 0c9.76 0 15.94-2.25 17.615-12.495C935.447 906.667 926.022 898.667 916.262 898.667zM714.117 847.897l197.026 0c9.76 0 17.615-7.875 17.6-17.615L928.743 557.552c0-9.74-7.84-17.61-17.615-17.61L714.112 539.942c-9.75 0-12.47 7.87-12.47 17.61l0 272.751c0 9.72 2.715 17.595 12.47 17.595L714.117 847.898zM731.732 570.027l166.92 0 0 247.786-166.92 0L731.732 570.027zM416.046 847.897l191.891 0c9.775 0 17.615-7.875 17.615-17.615L625.552 107.72c0-9.72-7.84-12.475-17.615-12.475L416.046 95.245c-9.72 0-17.595 2.755-17.595 12.475l0 722.562C398.451 840.022 406.326 847.897 416.046 847.897zM428.541 125.335l166.92 0 0 692.477-166.92 0L428.541 125.335zM107.72 847.897l197.03 0c9.72 0 17.613-7.875 17.578-17.615L322.328 395.831c0-9.702-7.893-17.595-17.598-17.595L107.72 378.236c-9.72 0-12.475 7.875-12.475 17.595l0 434.451C95.245 840.022 98 847.897 107.72 847.897L107.72 847.897zM125.335 408.326l166.92 0 0 409.466-166.92 0L125.335 408.326z" p-id="7424" fill="#ffffff"></path></svg>