<?xml version="1.0" standalone="no"?><!DOCTYPE svg PUBLIC "-//W3C//DTD SVG 1.1//EN" "http://www.w3.org/Graphics/SVG/1.1/DTD/svg11.dtd"><svg t="1533203030942" class="icon" style="" viewBox="0 0 1024 1024" version="1.1" xmlns="http://www.w3.org/2000/svg" p-id="25676" xmlns:xlink="http://www.w3.org/1999/xlink" width="128" height="128"><defs><style type="text/css"></style></defs><path d="M954.186 859.557l-132.043-132.043c139.81-186.414 93.206-450.499-85.439-582.542-163.111-124.276-396.129-108.741-543.707 38.836-163.111 163.111-163.111 427.198 0 590.309 147.578 147.578 372.827 163.111 543.707 38.836l132.043 132.043c23.301 23.301 62.138 23.301 85.439 0 23.301-15.534 23.301-54.371 0-85.439zM721.169 719.747c-62.138 62.138-147.578 100.974-240.784 100.974s-178.646-38.836-240.784-100.974c-132.043-132.043-132.043-349.525 0-481.568s349.525-132.043 481.568 0 132.043 349.525 0 481.568z" p-id="25677" fill="#ffffff"></path></svg>