<?xml version="1.0" standalone="no"?><!DOCTYPE svg PUBLIC "-//W3C//DTD SVG 1.1//EN" "http://www.w3.org/Graphics/SVG/1.1/DTD/svg11.dtd"><svg t="1533261643528" class="icon" style="" viewBox="0 0 1024 1024" version="1.1" xmlns="http://www.w3.org/2000/svg" p-id="3630" xmlns:xlink="http://www.w3.org/1999/xlink" width="128" height="128"><defs><style type="text/css"></style></defs><path d="M764.22707 184.887894l-60.440557 0 0-60.694337c0-17.576307-12.917194-31.822776-28.851095-31.822776-15.935947 0-28.853142 14.246469-28.853142 31.822776l0 60.694337L368.583125 184.887894l0-60.694337c0-17.576307-12.918217-31.822776-28.853142-31.822776-15.935947 0-28.853142 14.246469-28.853142 31.822776l0 60.694337L259.76986 184.887894c-66.798359 0-121.141034 54.343699-121.141034 121.141034l0 123.536594 0 380.923686c0 66.795289 54.341652 121.140011 121.141034 121.140011l504.458233 0c66.798359 0 121.143081-54.343699 121.143081-121.140011L885.371174 429.564499 885.371174 306.028928C885.370151 239.231593 831.026452 184.887894 764.22707 184.887894zM818.246381 810.489208c0 29.785374-24.232914 54.018288-54.019311 54.018288L259.76986 864.507496c-29.786397 0-54.018288-24.232914-54.018288-54.018288L205.751572 429.564499l612.494809 0L818.246381 810.489208zM818.246381 362.441752 205.751572 362.441752l0-56.412824c0-29.785374 24.231891-54.018288 54.018288-54.018288l504.458233 0c29.786397 0 54.019311 24.232914 54.019311 54.018288L818.247404 362.441752z" p-id="3631" fill="#ffffff"></path><path d="M453.706851 600.644923c5.398964 0 10.857279-1.329275 15.889899-4.071735l0 153.751756c0 18.413372 14.926968 33.340339 33.340339 33.340339s33.340339-14.926968 33.340339-33.340339l0-212.714659c0-18.414395-14.926968-33.341363-33.340339-33.341363-6.387477 0-12.354376 1.798972-17.424858 4.913916-1.174756 0.539282-2.335185 1.130753-3.465938 1.819438l-45.703925 27.816532c-15.730263 9.573029-20.720927 30.084179-11.146874 45.814442C431.473477 594.950224 442.454576 600.644923 453.706851 600.644923z" p-id="3632" fill="#ffffff"></path></svg>