<?xml version="1.0" standalone="no"?><!DOCTYPE svg PUBLIC "-//W3C//DTD SVG 1.1//EN" "http://www.w3.org/Graphics/SVG/1.1/DTD/svg11.dtd"><svg t="1533202912054" class="icon" style="" viewBox="0 0 1024 1024" version="1.1" xmlns="http://www.w3.org/2000/svg" p-id="24914" xmlns:xlink="http://www.w3.org/1999/xlink" width="128" height="128"><defs><style type="text/css"></style></defs><path d="M928.031904 70.680267H95.968096A95.41836 95.41836 0 0 0 0 165.391825v693.21635a95.41836 95.41836 0 0 0 95.968096 94.240356h832.063808a95.41836 95.41836 0 0 0 95.968096-94.240356V165.391825A95.41836 95.41836 0 0 0 928.031904 70.680267z m31.963188 787.770841a31.413452 31.413452 0 0 1-31.963188 31.413452H95.968096a31.413452 31.413452 0 0 1-32.041721-31.413452V165.391825a31.413452 31.413452 0 0 1 32.041721-31.413452h832.063808a31.413452 31.413452 0 0 1 31.963188 31.413452z" p-id="24915" fill="#ffffff"></path><path d="M424.081601 714.656032l214.553877-162.721681c30.706649-23.560089 30.313981-60.627962-0.785336-83.324182l-219.894164-159.89447c-31.413452-22.696219-55.994478-9.73817-55.444742 28.507708l5.026152 350.181455C368.087123 725.807807 393.532019 738.216121 424.081601 714.656032z" p-id="24916" fill="#ffffff"></path></svg>