<?xml version="1.0" standalone="no"?><!DOCTYPE svg PUBLIC "-//W3C//DTD SVG 1.1//EN" "http://www.w3.org/Graphics/SVG/1.1/DTD/svg11.dtd"><svg t="1533459515201" class="icon" style="" viewBox="0 0 1024 1024" version="1.1" xmlns="http://www.w3.org/2000/svg" p-id="2624" xmlns:xlink="http://www.w3.org/1999/xlink" width="48" height="48"><defs><style type="text/css"></style></defs><path d="M510.65344 931.28704z m0 92.71296a92.70784 92.70784 0 1 0 0-185.42592 92.71296 92.71296 0 0 0 0 185.42592M512 512z m0 92.71296a92.71808 92.71808 0 1 0 0-185.43104 92.71808 92.71808 0 0 0 0 185.43104M513.34656 92.71296z m0 92.71296c51.20512 0 92.71296-41.50784 92.71296-92.71296C606.05952 41.50784 564.55168 0 513.34656 0S420.62848 41.50784 420.62848 92.71296c0 51.20512 41.51296 92.71296 92.71808 92.71296" p-id="2625" fill="#ffffff"></path></svg>