<?xml version="1.0" standalone="no"?><!DOCTYPE svg PUBLIC "-//W3C//DTD SVG 1.1//EN" "http://www.w3.org/Graphics/SVG/1.1/DTD/svg11.dtd"><svg t="1533455529168" class="icon" style="" viewBox="0 0 1024 1024" version="1.1" xmlns="http://www.w3.org/2000/svg" p-id="13038" xmlns:xlink="http://www.w3.org/1999/xlink" width="48" height="48"><defs><style type="text/css"></style></defs><path d="M849.912591 960.16001999c13.8351 0 25.03007-11.19497 25.03007-25.03006999l0-846.25785301c0-13.836123-11.19497-25.031093-25.03007-25.031093-13.836123 0-25.03007 11.193947-25.03007001 25.03109301l1e-8 404.727835c0-14.395872-8.677637-26.985608-21.852704-35.272341l-550.793538-347.114672c-10.169617-6.40385-24.83564101-9.777691-36.665061-9.777691-35.004235 0-66.512856 28.501124-66.512856 63.457264L149.058362 859.109556c0 34.979676 32.756031 63.431681 67.733661 63.431681 11.80792999 0 25.568329-3.372817 35.737946-9.753131L801.978882 565.68469c13.175067-8.262174 22.903639-20.874423 22.90363899-35.247782L824.882522 935.12995C824.882522 948.96505 836.077491 960.16001999 849.912591 960.16001999zM781.298887 523.299347L228.060671 870.378204c-2.222621 1.39272001-8.847505 2.101871-11.268648 2.101871-6.42738601 0-17.67249801-5.108345-17.672498-13.370519l0-694.217065c0-11.342326 16.524348-16.379039 24.663726-11.294231L779.147898 500.712933c5.622044 3.569292 7.333012 9.093099 7.333012 11.293207C786.48091 514.255367 786.920932 519.779174 781.298887 523.299347z" p-id="13039" fill="#ffffff"></path></svg>