<?xml version="1.0" standalone="no"?><!DOCTYPE svg PUBLIC "-//W3C//DTD SVG 1.1//EN" "http://www.w3.org/Graphics/SVG/1.1/DTD/svg11.dtd"><svg t="1533455423752" class="icon" style="" viewBox="0 0 1024 1024" version="1.1" xmlns="http://www.w3.org/2000/svg" p-id="10449" xmlns:xlink="http://www.w3.org/1999/xlink" width="48" height="48"><defs><style type="text/css"></style></defs><path d="M481.3 655.6c1.1 1.5 2.4 2.8 3.9 3.9l8.7 8.7c4.5 4.5 10.7 6.5 16.6 5.9 5.9 0.6 12-1.4 16.6-5.9l113-113c8-8 8-21 0-28.9L625 511.2c-8-8-21-8-28.9 0l-55 55V148.9c0-11.6-9.4-20.9-20.9-20.9h-22.1c-11.6 0-20.9 9.4-20.9 20.9v414.3l-52.1-52.1c-8-8-21-8-28.9 0l-15.1 15.1c-8 8-8 21 0 28.9l100.2 100.5zM596.1 741.8H256c-35.3 0-63.9-28.6-63.9-63.9v-61.8-1.4-1.1c0-9.7-7.9-17.6-17.6-17.6h-28.1c-9.7 0-17.6 7.9-17.6 17.6V679c0 69.7 57.1 126.8 126.8 126.8h388.6c-20-17.9-36.4-39.6-48.1-64zM779.3 501.4c-84.5 0-153.1 68.5-153.1 153.1s68.5 153.1 153.1 153.1 153.1-68.5 153.1-153.1-68.6-153.1-153.1-153.1z m66.5 144.8h-50.5v22.7h50.5v32h-50.5v48.5h-32v-48.5h-50.5v-32h50.5v-22.7h-50.5v-32h36.5l-35.7-35.7 22.6-22.6 38.7 38.7 38.7-38.7 22.6 22.6-35.7 35.7h45.4v32z" p-id="10450" fill="#ffffff"></path></svg>