<?xml version="1.0" standalone="no"?><!DOCTYPE svg PUBLIC "-//W3C//DTD SVG 1.1//EN" "http://www.w3.org/Graphics/SVG/1.1/DTD/svg11.dtd"><svg t="1533459500862" class="icon" style="" viewBox="0 0 1024 1024" version="1.1" xmlns="http://www.w3.org/2000/svg" p-id="1914" xmlns:xlink="http://www.w3.org/1999/xlink" width="48" height="48"><defs><style type="text/css"></style></defs><path d="M752 144h-480C176 144 96 224 96 320v560l192-128h464c96 0 176-80 176-176v-256c0-96-80-176-176-176z m128 432c0 70.4-57.6 128-128 128h-480l-12.8 9.6-118.4 76.8V320c0-70.4 57.6-128 128-128h483.2c70.4 0 128 57.6 128 128v256z" p-id="1915" fill="#ffffff"></path><path d="M736 326.4H288c-12.8 0-25.6 9.6-25.6 25.6s9.6 25.6 25.6 25.6h448c12.8 0 25.6-9.6 25.6-25.6s-12.8-25.6-25.6-25.6zM512 518.4H288c-12.8 0-25.6 9.6-25.6 25.6s9.6 25.6 25.6 25.6h224c12.8 0 25.6-9.6 25.6-25.6s-12.8-25.6-25.6-25.6z" p-id="1916" fill="#ffffff"></path></svg>