<?xml version="1.0" standalone="no"?><!DOCTYPE svg PUBLIC "-//W3C//DTD SVG 1.1//EN" "http://www.w3.org/Graphics/SVG/1.1/DTD/svg11.dtd"><svg t="1533290266962" class="icon" style="" viewBox="0 0 1024 1024" version="1.1" xmlns="http://www.w3.org/2000/svg" p-id="6750" xmlns:xlink="http://www.w3.org/1999/xlink" width="128" height="128"><defs><style type="text/css"></style></defs><path d="M511.9999999999999 46.54545500000006c-51.2 7.105427357601002e-15-93.09090899999998 41.890909000000015-93.09090899999998 93.09090900000002s41.890909000000015 93.09090899999998 93.09090900000002 93.09090899999998 93.09090899999998-41.890909000000015 93.09090899999998-93.09090900000002-41.890909000000015-93.09090899999998-93.09090900000002-93.09090899999998z m5.684341886080802e-14 372.363636c-51.2 7.105427357601002e-15-93.09090899999998 41.890909000000015-93.09090899999998 93.09090900000002s41.890909000000015 93.09090899999998 93.09090900000002 93.09090899999998 93.09090899999998-41.890909000000015 93.09090899999998-93.09090900000002-41.890909000000015-93.09090899999998-93.09090900000002-93.09090899999998z m5.684341886080802e-14 372.363636c-51.2 7.105427357601002e-15-93.09090899999998 41.890909000000015-93.09090899999998 93.09090900000002s41.890909000000015 93.09090899999998 93.09090900000002 93.09090899999998 93.09090899999998-41.890909000000015 93.09090899999998-93.09090900000002-41.890909000000015-93.09090899999998-93.09090900000002-93.09090899999998z" p-id="6751" fill="#707070"></path></svg>