<?xml version="1.0" standalone="no"?><!DOCTYPE svg PUBLIC "-//W3C//DTD SVG 1.1//EN" "http://www.w3.org/Graphics/SVG/1.1/DTD/svg11.dtd"><svg t="1533290235135" class="icon" style="" viewBox="0 0 1024 1024" version="1.1" xmlns="http://www.w3.org/2000/svg" p-id="5992" xmlns:xlink="http://www.w3.org/1999/xlink" width="128" height="128"><defs><style type="text/css"></style></defs><path d="M750.1824 244.5312H273.8176c-45.4656 0-82.2272 36.864-82.2272 82.2272v298.496c0 45.4656 36.864 82.2272 82.2272 82.2272h58.7776v52.5312c0 7.0656 3.8912 14.1312 10.1376 17.2032 3.1744 1.536 6.2464 2.3552 9.4208 2.3552 3.8912 0 7.7824-1.536 10.9568-3.1744l103.424-68.9152h283.5456c45.4656 0 82.2272-36.864 82.2272-82.2272V326.7584c0.1024-45.4656-36.7616-82.2272-82.1248-82.2272z m43.008 380.6208c0 23.4496-19.5584 43.1104-43.1104 43.1104H464.1792c-4.9152-1.024-10.1376 0-14.848 3.1744l-77.5168 51.712v-29.7984c0-0.9216-0.1024-1.8432-0.2048-2.7648 0.1024-0.9216 0.2048-1.8432 0.2048-2.7648 0-10.9568-8.6016-19.5584-19.5584-19.5584h-78.336c-23.4496 0-43.1104-19.5584-43.1104-43.1104V326.7584c0-23.4496 19.5584-43.1104 43.1104-43.1104h476.2624c23.4496 0 43.1104 19.5584 43.1104 43.1104v298.3936z" fill="#707070" p-id="5993"></path><path d="M695.296 497.4592H320.8192c-10.9568 0-19.5584 8.6016-19.5584 19.5584 0 10.9568 8.6016 19.5584 19.5584 19.5584H695.296c10.1376 0 19.5584-8.6016 19.5584-19.5584 0-10.8544-8.6016-19.5584-19.5584-19.5584zM695.296 395.6736H320.8192c-10.9568 0-19.5584 8.6016-19.5584 19.5584 0 10.9568 8.6016 19.5584 19.5584 19.5584H695.296c10.1376 0 19.5584-8.6016 19.5584-19.5584 0-10.9568-8.6016-19.5584-19.5584-19.5584z" fill="#707070" p-id="5994"></path></svg>