<?xml version="1.0" standalone="no"?><!DOCTYPE svg PUBLIC "-//W3C//DTD SVG 1.1//EN" "http://www.w3.org/Graphics/SVG/1.1/DTD/svg11.dtd"><svg t="1533368819745" class="icon" style="" viewBox="0 0 1024 1024" version="1.1" xmlns="http://www.w3.org/2000/svg" p-id="13384" xmlns:xlink="http://www.w3.org/1999/xlink" width="48" height="48"><defs><style type="text/css"></style></defs><path d="M849.92 947.2H174.08c-81.92 0-148.48-66.56-148.48-148.48v-209.92l40.96-10.24c30.72-5.12 56.32-35.84 56.32-66.56s-25.6-61.44-56.32-66.56l-40.96-10.24V225.28c0-81.92 66.56-148.48 148.48-148.48h675.84c81.92 0 148.48 66.56 148.48 148.48v209.92l-40.96 10.24c-30.72 5.12-56.32 35.84-56.32 66.56s25.6 61.44 56.32 66.56l40.96 10.24v209.92c0 81.92-66.56 148.48-148.48 148.48zM128 665.6v133.12c0 25.6 20.48 46.08 46.08 46.08h675.84c25.6 0 46.08-20.48 46.08-46.08V665.6c-56.32-30.72-97.28-87.04-97.28-153.6s40.96-128 97.28-153.6V225.28c0-25.6-20.48-46.08-46.08-46.08H174.08c-25.6 0-46.08 20.48-46.08 46.08V358.4c56.32 25.6 97.28 87.04 97.28 153.6s-40.96 128-97.28 153.6z" p-id="13385" fill="#bfbfbf"></path><path d="M302.08 358.4v102.4h409.6V358.4h-409.6z m0 307.2h409.6v-102.4h-409.6v102.4z" p-id="13386" fill="#bfbfbf"></path></svg>