<?xml version="1.0" standalone="no"?><!DOCTYPE svg PUBLIC "-//W3C//DTD SVG 1.1//EN" "http://www.w3.org/Graphics/SVG/1.1/DTD/svg11.dtd"><svg t="1533363760229" class="icon" style="" viewBox="0 0 1024 1024" version="1.1" xmlns="http://www.w3.org/2000/svg" p-id="39929" xmlns:xlink="http://www.w3.org/1999/xlink" width="48" height="48"><defs><style type="text/css"></style></defs><path d="M426.666667 378.311111l48.355555 273.066667 182.044445-261.688889c2.844444-5.688889 2.844444-11.377778 2.844444-19.911111 0-11.377778-2.844444-19.911111-11.377778-25.6-5.688889-5.688889-11.377778-8.533333-25.6-8.533334h-22.755555c-5.688889 0-11.377778-5.688889-11.377778-11.377777s5.688889-11.377778 11.377778-11.377778h153.6c5.688889 0 11.377778 5.688889 11.377778 11.377778s-5.688889 11.377778-11.377778 11.377777h-2.844445c-11.377778 0-22.755556 5.688889-31.288889 14.222223-11.377778 8.533333-14.222222 19.911111-28.444444 42.666666L455.111111 739.555556h-28.444444l-73.955556-369.777778c-5.688889-11.377778-11.377778-19.911111-19.911111-25.6-8.533333-5.688889-17.066667-8.533333-31.288889-8.533334h-5.688889c-5.688889 0-11.377778-5.688889-11.377778-11.377777s5.688889-11.377778 11.377778-11.377778h179.2c5.688889 0 11.377778 5.688889 11.377778 11.377778s-5.688889 11.377778-11.377778 11.377777H455.111111c-14.222222 0-25.6 2.844444-28.444444 5.688889-5.688889 2.844444-8.533333 5.688889-8.533334 11.377778 0 2.844444 0 8.533333 8.533334 25.6z" fill="#bfbfbf" p-id="39930"></path><path d="M512 39.822222C250.311111 39.822222 39.822222 250.311111 39.822222 512S250.311111 984.177778 512 984.177778 984.177778 773.688889 984.177778 512 773.688889 39.822222 512 39.822222z m0 904.533334C273.066667 944.355556 79.644444 750.933333 79.644444 512S273.066667 79.644444 512 79.644444 944.355556 273.066667 944.355556 512 750.933333 944.355556 512 944.355556z" fill="#bfbfbf" p-id="39931"></path></svg>