<?xml version="1.0" standalone="no"?><!DOCTYPE svg PUBLIC "-//W3C//DTD SVG 1.1//EN" "http://www.w3.org/Graphics/SVG/1.1/DTD/svg11.dtd"><svg t="1533363625986" class="icon" style="" viewBox="0 0 1024 1024" version="1.1" xmlns="http://www.w3.org/2000/svg" p-id="33117" xmlns:xlink="http://www.w3.org/1999/xlink" width="48" height="48"><defs><style type="text/css"></style></defs><path d="M914.061 738.748c11.309 0 20.469-9.092 20.469-20.264l0-402.48c0-16.211-5.137-31.23-13.789-43.633-0.352-0.566-0.449-1.211-0.84-1.758-0.684-0.879-1.621-1.357-2.402-2.109-14.238-17.813-36.035-29.434-60.781-29.434L212.341 239.07c-42.988 0-77.813 34.434-77.813 76.934l0 466.143c0 42.51 34.824 76.914 77.813 76.914l644.375 0c42.988 0 77.813-34.404 77.813-76.914l0-64.111c-0.059-11.133-9.18-20.156-20.469-20.156-11.27 0-20.43 9.023-20.488 20.156l0 60.059c0 22.383-18.359 40.508-40.957 40.508L216.443 818.603c-22.598 0-40.977-18.125-40.977-40.508L175.466 320.066c0-2.227 0.313-4.336 0.664-6.465l357.989 288.75c0.02 0 0.059 0.029 0.098 0.049 3.184 2.354 6.816 3.359 10.488 3.76 1.055 0.176 2.09 0.117 3.164 0.146 1.055-0.029 2.09 0.039 3.145-0.146 3.691-0.4 7.324-1.406 10.508-3.76 0.02-0.02 0.059-0.049 0.078-0.049l331.68-285.234c0.078 0.977 0.313 1.943 0.313 2.949l0 398.428C893.592 729.656 902.752 738.748 914.061 738.748L914.061 738.748 914.061 738.748zM216.443 279.549l636.172 0c5.391 0 10.527 1.094 15.254 2.969l-320 276.514L204.783 281.434C208.494 280.32 212.361 279.549 216.443 279.549L216.443 279.549 216.443 279.549zM216.443 279.549" p-id="33118" fill="#bfbfbf"></path></svg>