<?xml version="1.0" standalone="no"?><!DOCTYPE svg PUBLIC "-//W3C//DTD SVG 1.1//EN" "http://www.w3.org/Graphics/SVG/1.1/DTD/svg11.dtd"><svg t="1533362883245" class="icon" style="" viewBox="0 0 1024 1024" version="1.1" xmlns="http://www.w3.org/2000/svg" p-id="11778" xmlns:xlink="http://www.w3.org/1999/xlink" width="32" height="32"><defs><style type="text/css"></style></defs><path d="M883.200518 179.20311c0-44.26509-20.40452-89.705237-76.793434-100.11486l0 343.310194c0 1.617431 0 9.953424 0 12.80121 0 70.683137-63.052178 127.998272-140.799482 127.998272-77.774952 0-140.799482-57.315135-140.799482-127.998272 0-70.710785 63.02453-127.998272 140.799482-127.998272 23.16936 0 44.721288 5.584977 64.006048 14.598356L729.613651 38.403629C729.599827 17.183481 746.797133 0 767.989632 0c4.534338 0 12.80121 0 12.80121 0 101.607873 0 179.20311 75.977806 179.20311 179.20311C959.993952 204.791705 883.200518 204.003726 883.200518 179.20311zM665.593779 383.994816c-35.348481 0-64.006048 22.9067-64.006048 51.204838 0 28.256666 28.643743 51.204838 64.006048 51.204838 35.348481 0 64.006048-22.934349 64.006048-51.204838C729.599827 406.901516 700.956084 383.994816 665.593779 383.994816zM601.601555 230.394125c0-77.056093-74.498616-153.600691-166.401901-153.600691S269.599557 154.139835 268.797754 230.394125l0 281.598963c0 107.441686 74.498616 179.20311 166.401901 179.20311 70.752258 0 122.136811-44.845706 140.799482-76.821082 31.380935-53.734667 94.999905-12.082351 51.204838 51.218663-22.809931 32.94307-101.248444 102.395853-191.990496 102.395853-115.915921 0-243.195334-102.506446-243.195334-230.394125L192.018144 230.394125C192.00432 96.078193 300.883723 0 435.199654 0s243.195334 101.676994 243.195334 230.394125c0 0 0 17.459965 0 25.602419l-76.793434 0C601.601555 249.471521 601.601555 230.394125 601.601555 230.394125zM729.599827 639.99136c0 0 17.21113-51.633389 38.403629-51.218663 51.591916 0.981518 38.403629 51.218663 38.403629 51.218663-49.310923 147.504219-176.120314 262.936293-332.789977 279.373267l0 66.231744c0 21.192499-17.197305 38.403629-38.403629 38.403629s-38.403629-17.197305-38.403629-38.403629l0-66.204096C240.001944 902.982949 113.178729 787.73059 64.006048 639.99136c0 0 0-3.303984 0-12.80121 0-21.220148 14.473938-38.154793 35.680261-38.320684 24.593253-0.193539 41.126996 51.121893 41.126996 51.121893 49.200329 117.035681 162.862906 204.791705 294.400173 204.791705C567.220769 844.783065 680.70363 757.718251 729.599827 639.99136z" p-id="11779" fill="#bfbfbf"></path></svg>