<?xml version="1.0" standalone="no"?><!DOCTYPE svg PUBLIC "-//W3C//DTD SVG 1.1//EN" "http://www.w3.org/Graphics/SVG/1.1/DTD/svg11.dtd"><svg t="1533362801968" class="icon" style="" viewBox="0 0 1024 1024" version="1.1" xmlns="http://www.w3.org/2000/svg" p-id="10328" xmlns:xlink="http://www.w3.org/1999/xlink" width="128" height="128"><defs><style type="text/css"></style></defs><path d="M513.685 831.746c-41.378 0-81.584-7.78-119.368-23.233-36.522-14.827-69.298-36.129-97.423-63.235-28.197-27.106-50.285-58.674-65.738-93.836-15.999-36.397-24.118-75.056-24.118-114.933 0-47.683 12.162-95.035 35.101-136.985 22.214-40.538 54.452-76.121 93.264-102.922 10.803-7.423 25.773-5.008 33.5 5.375 7.664 10.32 5.249 24.744-5.554 32.141-32.811 22.697-60.06 52.7-78.741 86.888-19.647 35.888-29.61 74.734-29.61 115.505 0 66.552 26.926 129.089 75.817 176.145 48.836 47.048 113.779 72.946 182.871 72.946 69.056 0 134.034-25.898 182.924-72.946 48.863-47.057 75.754-109.594 75.754-176.145 0-40.707-9.927-79.644-29.6-115.505-18.681-34.162-45.966-64.191-78.75-86.861-10.802-7.387-13.28-21.785-5.553-32.167 7.726-10.329 22.697-12.77 33.446-5.312 38.873 26.802 71.166 62.384 93.317 102.913 23.001 41.951 35.136 89.276 35.136 136.994 0 39.876-8.12 78.5-24.146 114.933-15.427 35.163-37.551 66.731-65.711 93.836-28.152 27.133-60.936 48.381-97.449 63.288-37.847 15.362-77.99 23.116-119.369 23.116z m7.208-320.375c-13.245 0-23.958-10.257-23.958-23.055V214.874c0-12.744 10.714-23.09 23.958-23.09 13.226 0 24.029 10.347 24.029 23.09v273.443c0 12.797-10.802 23.054-24.029 23.054z" p-id="10329" fill="#707070"></path></svg>