<?xml version="1.0" standalone="no"?><!DOCTYPE svg PUBLIC "-//W3C//DTD SVG 1.1//EN" "http://www.w3.org/Graphics/SVG/1.1/DTD/svg11.dtd"><svg t="1533363157742" class="icon" style="" viewBox="0 0 1024 1024" version="1.1" xmlns="http://www.w3.org/2000/svg" p-id="20022" xmlns:xlink="http://www.w3.org/1999/xlink" width="48" height="48"><defs><style type="text/css"></style></defs><path d="M959.734 957.614c-8.417-112.552-58.671-217.057-141.507-294.265-57.667-53.749-127.476-90.768-202.78-108.453 29.296-12.708 56.232-30.947 79.492-54.207 48.564-48.564 75.31-113.135 75.31-181.815 0-68.68-26.745-133.25-75.31-181.814-48.564-48.564-113.133-75.31-181.814-75.31s-133.25 26.746-181.815 75.311C282.746 185.625 256 250.194 256 318.875s26.746 133.251 75.31 181.815c23.143 23.143 49.926 41.318 79.052 54.018-75.613 17.609-145.716 54.7-203.59 108.642-82.835 77.208-133.09 181.713-141.506 294.264-1.318 17.624 11.9 32.979 29.524 34.298a32.3 32.3 0 0 0 2.42 0.091c16.588-0.001 30.62-12.804 31.876-29.615C143.99 763.104 312.405 607 512.5 607c200.096 0 368.511 156.104 383.412 355.386 1.318 17.625 16.693 30.853 34.297 29.525 17.624-1.318 30.843-16.674 29.525-34.297zM320 318.875c0-106.489 86.636-193.125 193.125-193.125s193.124 86.635 193.124 193.125S619.614 512 513.125 512 320 425.364 320 318.875z" fill="#bfbfbf" p-id="20023"></path></svg>