<?xml version="1.0" standalone="no"?><!DOCTYPE svg PUBLIC "-//W3C//DTD SVG 1.1//EN" "http://www.w3.org/Graphics/SVG/1.1/DTD/svg11.dtd"><svg t="1533368509839" class="icon" style="" viewBox="0 0 1024 1024" version="1.1" xmlns="http://www.w3.org/2000/svg" p-id="1890" xmlns:xlink="http://www.w3.org/1999/xlink" width="48" height="48"><defs><style type="text/css"></style></defs><path d="M140.700285 234.086592c0-51.033169 41.371326-92.404494 92.404494-92.404494l167.436464 0 0-40.375131L223.732494 101.306966c-68.038472 0-123.194487 55.156015-123.194487 123.194487L100.538007 402.476105l40.162277 0L140.700285 234.086592zM879.93624 234.086592 879.93624 402.476105l41.899625 0L921.835865 224.501453c0-68.038472-55.156015-123.194487-123.194487-123.194487L619.136479 101.306966l0 40.375131 168.395266 0C838.564914 141.682097 879.93624 183.052464 879.93624 234.086592zM141.36761 789.913408 141.36761 621.523895l-40.162277 0 0 177.974652c0 68.038472 55.156015 123.194487 123.194487 123.194487l176.80779 0 0-40.375131L233.772105 882.317903C182.737978 882.317903 141.36761 840.947536 141.36761 789.913408zM880.603566 789.913408c0 51.033169-41.371326 92.404494-92.404494 92.404494L619.803805 882.317903l0 40.375131 179.504899 0c68.038472 0 123.194487-55.156015 123.194487-123.194487L922.503191 621.523895l-41.899625 0L880.603566 789.913408zM926.69603 496.438652 95.677843 496.438652c-12.179655 0-22.052434 9.872779-22.052434 22.052434s9.872779 22.052434 22.052434 22.052434l831.018187 0c12.179655 0 22.052434-9.872779 22.052434-22.052434S938.875685 496.438652 926.69603 496.438652z" p-id="1891" fill="#bfbfbf"></path></svg>