<?xml version="1.0" standalone="no"?><!DOCTYPE svg PUBLIC "-//W3C//DTD SVG 1.1//EN" "http://www.w3.org/Graphics/SVG/1.1/DTD/svg11.dtd"><svg t="1533362842816" class="icon" style="" viewBox="0 0 1024 1024" version="1.1" xmlns="http://www.w3.org/2000/svg" p-id="11142" xmlns:xlink="http://www.w3.org/1999/xlink" width="128" height="128"><defs><style type="text/css"></style></defs><path d="M810.427 213.655c-79.697-79.649-185.617-123.53-298.342-123.53-112.687 0-218.619 43.882-298.284 123.538-79.693 79.684-123.578 185.637-123.578 298.339-0.020 112.714 43.831 218.645 123.515 298.377 79.654 79.608 185.597 123.496 298.269 123.496 112.726 0 218.705-43.916 298.42-123.578 164.455-164.472 164.482-432.106 0-596.642v0 0zM771.547 771.409c-69.322 69.312-161.495 107.522-259.54 107.522-97.976 0-190.127-38.191-259.403-107.44-69.277-69.289-107.42-161.444-107.405-259.489 0-98.031 38.161-190.194 107.463-259.468 69.292-69.277 161.412-107.424 259.423-107.424 98.016 0 190.156 38.147 259.462 107.429 143.034 143.067 143.034 375.85 0 518.871v0 0zM694.388 615.389l-145.827-84.335v-229.992c0-19.411-15.747-35.156-35.163-35.156-19.4 0-35.148 15.745-35.148 35.156v246.097c0 13.041 16.209 23.975 26.753 30.023 2.917 4.391 10.933 8.365 15.82 11.177l145.020 87.897c16.799 9.697 35.016 3.935 44.718-12.871 9.703-16.81 0.668-38.29-16.175-47.993v0-0.005zM694.388 615.389z" p-id="11143" fill="#bfbfbf"></path></svg>