<?xml version="1.0" standalone="no"?><!DOCTYPE svg PUBLIC "-//W3C//DTD SVG 1.1//EN" "http://www.w3.org/Graphics/SVG/1.1/DTD/svg11.dtd"><svg t="1533362624594" class="icon" style="" viewBox="0 0 1024 1024" version="1.1" xmlns="http://www.w3.org/2000/svg" p-id="6921" xmlns:xlink="http://www.w3.org/1999/xlink" width="128" height="128"><defs><style type="text/css"></style></defs><path d="M512 917.333333C288 917.333333 106.666667 736 106.666667 512S288 106.666667 512 106.666667c32 0 55.466667 25.6 55.466667 55.466666 0 21.333333-12.8 38.4-23.466667 44.8-44.8 36.266667-70.4 89.6-70.4 149.333334 0 106.666667 85.333333 192 192 192 59.733333 0 113.066667-25.6 149.333333-72.533334 6.4-8.533333 23.466667-21.333333 44.8-21.333333 32 0 55.466667 25.6 55.466667 55.466667C917.333333 736 736 917.333333 512 917.333333z m-8.533333-750.933333C317.866667 170.666667 166.4 324.266667 166.4 512c0 189.866667 155.733333 345.6 345.6 345.6 187.733333 0 341.333333-151.466667 345.6-339.2-49.066667 57.6-117.333333 89.6-192 89.6-138.666667 0-251.733333-113.066667-251.733333-251.733333 2.133333-72.533333 34.133333-142.933333 89.6-189.866667z" p-id="6922" fill="#707070"></path></svg>