<?xml version="1.0" standalone="no"?><!DOCTYPE svg PUBLIC "-//W3C//DTD SVG 1.1//EN" "http://www.w3.org/Graphics/SVG/1.1/DTD/svg11.dtd"><svg t="1533363382837" class="icon" style="" viewBox="0 0 1024 1024" version="1.1" xmlns="http://www.w3.org/2000/svg" p-id="25018" xmlns:xlink="http://www.w3.org/1999/xlink" width="48" height="48"><defs><style type="text/css"></style></defs><path d="M902.064 404.4l-70.912-209.888C810.448 133.696 784.416 96 718.72 96L305.28 96c-67.984 0-94.944 49.68-112.432 98.56L121.936 404.4C106.096 418.352 96 438.128 96 460.24l0 391.52C96 893.792 131.888 928 176 928l672 0c44.112 0 80-34.208 80-76.24l0-391.52C928 438.128 917.904 418.352 902.064 404.4zM223.056 205.072C243.184 148.896 265.472 128 305.28 128l413.44 0c43.44 0 61.856 17.232 82.128 76.8l60.992 180.528C857.328 384.576 852.736 384 848 384L176 384c-4.736 0-9.328 0.576-13.84 1.328L223.056 205.072zM896 851.76C896 876.16 874.464 896 848 896L176 896c-26.464 0-48-19.84-48-44.24l0-391.52C128 435.84 149.536 416 176 416l672 0c26.464 0 48 19.84 48 44.24L896 851.76zM672 480 352 480c-26.464 0-48 21.536-48 48l0 64c0 26.464 21.536 48 48 48l320 0c26.464 0 48-21.536 48-48l0-64C720 501.536 698.464 480 672 480zM688 592c0 8.832-7.168 16-16 16L352 608c-8.816 0-16-7.168-16-16l0-64c0-8.816 7.184-16 16-16l320 0c8.832 0 16 7.184 16 16L688 592zM352 224l320 0c8.848 0 16-7.168 16-16s-7.152-16-16-16L352 192c-8.832 0-16 7.168-16 16S343.168 224 352 224zM320 320l384 0c8.848 0 16-7.168 16-16s-7.152-16-16-16L320 288c-8.832 0-16 7.168-16 16S311.168 320 320 320z" p-id="25019" fill="#bfbfbf"></path></svg>