<?xml version="1.0" standalone="no"?><!DOCTYPE svg PUBLIC "-//W3C//DTD SVG 1.1//EN" "http://www.w3.org/Graphics/SVG/1.1/DTD/svg11.dtd"><svg t="1533363462680" class="icon" style="" viewBox="0 0 1464 1024" version="1.1" xmlns="http://www.w3.org/2000/svg" p-id="27610" xmlns:xlink="http://www.w3.org/1999/xlink" width="68.625" height="48"><defs><style type="text/css"></style></defs><path d="M1345.51517 203.655698C1278.852526 85.735725 1177.989078-0.641138 1053.192052 0.003585c-124.886571 0.546224-225.470638 75.916221-225.470638 75.916221-12.382278 16.784308-43.554671 24.485175-60.611195 24.848728L693.382477 100.768534c-15.768868 0-48.963186-13.472935-58.497934-24.848728 0 0-100.584068-75.554459-226.486078-75.916221C282.503617-0.18625 178.617131 92.884995 127.906027 186.411128-10.917322 441.59995-14.128404 682.112351 14.114077 859.264527c28.151146 177.06084 158.263561 162.6638 158.263561 162.6638l13.299218-0.635769c107.006232-9.353867 262.520763-251.426142 272.419063-266.004062 9.815919-14.859091 25.681496-26.687981 47.136469-26.870653 21.266929-0.272217 427.654213-0.182672 448.102701-0.272217 18.987114-0.182672 35.028199 9.71742 46.310865 26.499937 9.072696 13.480099 165.412831 251.515687 277.918915 267.375891l17.153233 1.839254c0 0 127.909609 10.906577 153.856158-160.285486C1474.529764 692.291823 1479.4816 439.94874 1345.51517 203.655698L1345.51517 203.655698zM1382.83572 858.347586c-17.516786 104.991471-89.49661 98.388425-89.49661 98.388425l-14.579711 0c-80.877012-37.415468-202.371619-209.796688-231.529251-245.466029-29.248967-35.762468-67.66913-48.689179-94.994671-48.871851-27.416877 0-413.173002-0.454888-449.487067 0-36.308692 0.642933-76.380064 21.182757-95.086007 48.046246-18.790115 26.772153-152.48612 224.743533-223.729884 246.472514l-11.82889-0.180881c0 0-73.90325 10.177681-92.700529-104.901926-18.616398-115.072443-42.456849-387.129744 117.094368-648.459559 28.695579-47.220641 108.014509-136.344744 213.738457-136.898132 105.537695-0.454888 205.849546 75.833839 205.849546 75.833839 16.048249 17.14607 74.734227 22.833966 74.734227 22.833966l80.226915 0c0 0 50.80244-0.825605 77.574593-22.833966 0 0 94.722454-76.106056 206.863195-75.833839 112.232076 0.27938 173.849757 73.357026 213.740248 137.542856C1429.049877 462.594662 1400.43847 753.726832 1382.83572 858.347586L1382.83572 858.347586 1382.83572 858.347586zM1100.140477 297.543593c0-59.323539-47.95491-107.369785-107.369785-107.369785-59.140867 0-107.194277 48.046246-107.194277 107.369785 0 59.149822 48.05341 107.097568 107.194277 107.097568C1052.094231 404.73966 1100.140477 356.693414 1100.140477 297.543593L1100.140477 297.543593 1100.140477 297.543593zM992.770692 356.78475c-32.558549 0-59.148031-26.499937-59.148031-59.241157 0-32.913147 26.499937-59.323539 59.148031-59.323539 32.823602 0 59.323539 26.499937 59.323539 59.323539C1052.094231 330.284813 1025.594294 356.78475 992.770692 356.78475L992.770692 356.78475 992.770692 356.78475zM1165.060576 411.154662c-58.959986 0-107.097568 48.144746-107.097568 107.378739s48.137582 107.278449 107.097568 107.278449c59.414875 0 107.468284-47.95491 107.468284-107.278449C1272.430361 459.292244 1224.475451 411.154662 1165.060576 411.154662L1165.060576 411.154662zM1165.060576 577.855149c-32.46005 0-59.232203-26.499937-59.232203-59.232203 0-32.73943 26.680818-59.330702 59.232203-59.330702 32.823602 0 59.414875 26.499937 59.414875 59.330702C1224.475451 551.446548 1197.884178 577.855149 1165.060576 577.855149L1165.060576 577.855149zM406.655919 249.22513l-52.35515 0 0 117.828637-117.737301 0 0 52.35515 117.737301 0 0 117.733719 52.35515 0 0-117.733719 117.647756 0 0-52.35515-117.647756 0L406.655919 249.22513 406.655919 249.22513zM406.655919 249.22513" p-id="27611" fill="#bfbfbf"></path></svg>