<?xml version="1.0" standalone="no"?><!DOCTYPE svg PUBLIC "-//W3C//DTD SVG 1.1//EN" "http://www.w3.org/Graphics/SVG/1.1/DTD/svg11.dtd"><svg t="1533362949125" class="icon" style="" viewBox="0 0 1024 1024" version="1.1" xmlns="http://www.w3.org/2000/svg" p-id="12759" xmlns:xlink="http://www.w3.org/1999/xlink" width="48" height="48"><defs><style type="text/css"></style></defs><path d="M418.625868 676.831093" p-id="12760" fill="#bfbfbf"></path><path d="M945.236634 335.533916 693.504332 182.495404c-2.606361-1.568728-5.604648-4.334725-8.635681-4.334725l-59.860343 0c-7.203052 0-13.595646 6.544043-15.897062 13.357216-12.742209 37.742603-48.880267 65.071018-87.868233 65.071018-39.006386 0-75.126025-27.816532-87.877443-65.559135-2.294252-6.814196-8.685823-12.870122-15.887852-12.870122l-76.642564 0c-3.040243 0-6.030343 2.765997-8.636704 4.334725L80.465125 334.575078c-7.005554 4.203742-9.963932 13.331633-7.005554 20.961404l58.736752 151.317311c3.204995 8.235568 12.242835 12.726859 20.691251 10.055007l137.108704-43.291992-7.899924 379.326305c-0.089028 4.50664 1.639337 6.949272 4.786003 10.169617 3.163039 3.219321 7.482415 3.113921 11.997242 3.113921l419.552471 0 0.155543 0c9.284457 0 16.781198-5.571902 16.781198-14.839986 0-0.934279-0.064468-0.86981-0.203638-1.763157l-7.858992-378.817722 136.853901 45.88812c8.194636 2.688225 17.134239-1.089821 20.650319-8.980535l67.128887-151.038972C955.380668 348.923878 952.496991 339.8932 945.236634 335.533916M860.325755 480.279554l-144.975882-48.367591c-5.195326-1.711991-10.865465-0.840134-15.265682 2.408863-4.39203 3.236718-6.941086 6.469342-6.826476 11.914354l8.03807 386.42805L316.012815 832.66323l8.03807-383.633401c0.107447-5.412266-2.39249-9.583263-6.718005-12.81077-4.343935-3.25002-9.964956-3.720741-15.127536-2.089591l-144.434553 45.904493-47.913243-125.050064L345.48915 211.725122l60.564377 0c20.313651 50.346665 66.046229 75.519997 115.188462 75.519997 49.124837 0 94.866624-25.173332 115.172089-75.519997l43.799552 0 235.023758 143.009088L860.325755 480.279554z" p-id="12761" fill="#bfbfbf"></path></svg>