<?xml version="1.0" standalone="no"?><!DOCTYPE svg PUBLIC "-//W3C//DTD SVG 1.1//EN" "http://www.w3.org/Graphics/SVG/1.1/DTD/svg11.dtd"><svg t="1533362754484" class="icon" style="" viewBox="0 0 1024 1024" version="1.1" xmlns="http://www.w3.org/2000/svg" p-id="8392" xmlns:xlink="http://www.w3.org/1999/xlink" width="128" height="128"><defs><style type="text/css"></style></defs><path d="M998.2208 598.1696L910.208 547.84a369.3568 369.3568 0 0 0 0-71.6544l88.0128-50.3552a51.1232 51.1232 0 0 0 18.816-70.1952l-116.2752-199.6032a51.2256 51.2256 0 0 0-69.6832-18.6368l-88.4992 50.688a395.7248 395.7248 0 0 0-63.104-36.096V51.2a51.2 51.2 0 0 0-51.2-51.2H395.776a51.2 51.2 0 0 0-51.2 51.2v100.7872c-22.1952 10.112-43.264 22.144-63.1552 36.0704l-88.5248-50.688a51.1744 51.1744 0 0 0-69.6832 18.6624L6.9632 355.6352a51.2 51.2 0 0 0 18.7904 70.1952l88.0128 50.3808a375.808 375.808 0 0 0 0 71.6032l-88.0128 50.3552a51.2 51.2 0 0 0-18.7904 70.2208l116.2496 199.552a51.0976 51.0976 0 0 0 44.288 25.3952c8.6016 0 17.3568-2.1504 25.3696-6.7328l88.576-50.6624a396.2368 396.2368 0 0 0 63.1296 36.096V972.8a51.2 51.2 0 0 0 51.2 51.2h232.4992a51.2 51.2 0 0 0 51.2-51.2v-100.736c22.1952-10.1376 43.264-22.1952 63.104-36.096l88.5504 50.6624a51.1488 51.1488 0 0 0 69.6576-18.6624l116.2496-199.552c6.8608-11.8016 8.7552-25.856 5.1968-39.0144a51.1232 51.1232 0 0 0-24.0128-31.232z m-141.6704 243.9936l-118.1696-67.584a349.056 349.056 0 0 1-110.1056 62.9504V972.8H395.776v-135.2448a349.4656 349.4656 0 0 1-110.1312-62.9504l-118.1696 67.584L51.2 642.6368l118.1184-67.6096A345.856 345.856 0 0 1 163.2512 512c0-21.6064 2.2784-42.5728 6.0672-63.0016L51.2 381.3632l116.2496-199.552 118.1184 67.6096a350.8224 350.8224 0 0 1 110.208-62.9504V51.2h232.4992v135.2704a351.4368 351.4368 0 0 1 110.1568 62.9504l118.0928-67.6096L972.8 381.3632l-118.1184 67.584c3.7888 20.48 6.0672 41.4464 6.0672 63.0528 0 21.5552-2.2784 42.5728-6.0672 63.0784L972.8 642.6368l-116.2496 199.5264z" p-id="8393" fill="#707070"></path><path d="M512 307.2c-112.9216 0-204.8 91.8784-204.8 204.8s91.8784 204.8 204.8 204.8 204.8-91.8784 204.8-204.8-91.8784-204.8-204.8-204.8z m0 358.4a153.6 153.6 0 1 1 0-307.2 153.6 153.6 0 0 1 0 307.2z" p-id="8394" fill="#707070"></path></svg>