<?xml version="1.0" standalone="no"?><!DOCTYPE svg PUBLIC "-//W3C//DTD SVG 1.1//EN" "http://www.w3.org/Graphics/SVG/1.1/DTD/svg11.dtd"><svg t="1533363573661" class="icon" style="" viewBox="0 0 1024 1024" version="1.1" xmlns="http://www.w3.org/2000/svg" p-id="31793" xmlns:xlink="http://www.w3.org/1999/xlink" width="48" height="48"><defs><style type="text/css"></style></defs><path d="M392.343 771.151c-47.644 0-86.442 38.797-86.442 86.45 0 47.865 38.797 86.454 86.442 86.454 47.653 0 86.457-38.589 86.457-86.454 0-47.647-38.804-86.45-86.457-86.45zM392.343 907.187c-27.38 0-49.362-22.211-49.362-49.594 0-27.166 21.985-49.37 49.362-49.37s49.37 22.211 49.37 49.37c0 27.38-21.994 49.594-49.37 49.594z" p-id="31794" fill="#bfbfbf"></path><path d="M758.841 771.151c-47.644 0-86.442 38.797-86.442 86.45 0 47.865 38.797 86.454 86.442 86.454 47.657 0 86.457-38.589 86.457-86.454 0-47.647-38.797-86.45-86.457-86.45zM758.841 907.187c-27.38 0-49.358-22.211-49.358-49.594 0-27.166 21.975-49.37 49.358-49.37s49.37 22.211 49.37 49.37c0 27.38-21.994 49.594-49.37 49.594z" p-id="31795" fill="#bfbfbf"></path><path d="M900.707 230.884h-661.207c-3.666 0.433-17.029-56.487-31.69-104.563-12.506-40.745-44.196-46.348-44.196-46.348h-66.406c-5.604-0.222-19.61-4.315-20.905 20.469 0 20.485 17.459 22.646 17.459 22.646h43.121c56.694 0 46.352 109.089 137.319 510.513 18.117 79.771 79.561 71.58 79.561 71.58h456.401c64.020-0.433 70.277-56.918 70.277-56.918s65.113-301.395 76.972-362.185c0-57.346-56.708-55.191-56.708-55.191zM910.844 320.783c-6.9 59.929-67.696 302.901-67.696 302.901s-9.278 38.385-47.423 38.385h-429.028c0 0-38.158 5.604-53.9-42.478l-70.066-345.585h638.367c0 0 39.233-5.823 29.75 46.774z" p-id="31796" fill="#bfbfbf"></path></svg>