<?xml version="1.0" standalone="no"?><!DOCTYPE svg PUBLIC "-//W3C//DTD SVG 1.1//EN" "http://www.w3.org/Graphics/SVG/1.1/DTD/svg11.dtd"><svg t="1533362976524" class="icon" style="" viewBox="0 0 1024 1024" version="1.1" xmlns="http://www.w3.org/2000/svg" p-id="13541" xmlns:xlink="http://www.w3.org/1999/xlink" width="48" height="48"><defs><style type="text/css"></style></defs><path d="M511.444233 205.494708c-86.699593 0-157.420896 69.331886-157.420895 154.364179S424.605699 514.223066 511.444233 514.223066c86.699593 0 157.281954-69.192944 157.281954-154.364179 0-85.032293-70.443419-154.364179-157.281954-154.364179m0 240.369064c-48.212754 0-87.533243-38.62578-87.533242-86.004885s39.181547-86.004885 87.533242-86.004884c48.212754 0 87.394301 38.62578 87.394302 86.004884 0.138942 47.379104-39.181547 86.004885-87.394302 86.004885m368.195387-62.94057c0-199.520217-165.201628-361.804071-368.195387-361.80407S143.387788 183.402985 143.387788 382.923202c0 156.448304 226.752782 471.429037 324.150882 599.811126 10.281682 13.477341 26.676798 21.535957 43.905563 21.535957s33.623881-8.058616 43.905563-21.535957c97.537042-128.38209 324.289824-443.501764 324.289824-599.811126M517.279783 927.852374l-5.83555 7.641792-5.835549-7.641792c-183.958752-244.537313-298.446676-453.366621-298.446676-544.929172 0-164.784803 136.579647-298.863501 304.282225-298.863501s304.282225 134.078697 304.282226 298.863501c0.138942 91.562551-114.348982 300.391859-298.446676 544.929172" fill="#bfbfbf" p-id="13542"></path></svg>