<?xml version="1.0" standalone="no"?><!DOCTYPE svg PUBLIC "-//W3C//DTD SVG 1.1//EN" "http://www.w3.org/Graphics/SVG/1.1/DTD/svg11.dtd"><svg t="1533279345901" class="icon" style="" viewBox="0 0 1024 1024" version="1.1" xmlns="http://www.w3.org/2000/svg" p-id="11645" xmlns:xlink="http://www.w3.org/1999/xlink" width="128" height="128"><defs><style type="text/css"></style></defs><path d="M483.5 806.4c6.6 8.6 16.9 14.1 28.5 14.1h0.5c9.2 0 18.5-3.5 25.5-10.5 0.5-0.5 1-1 1.4-1.5l141.9-141.9c14-14 14-36.9 0-50.9s-36.9-14-50.9 0L548 698.1V100.5c0-19.8-16.2-36-36-36s-36 16.2-36 36v596.6l-81.4-81.4c-14-14-36.9-14-50.9 0s-14 36.9 0 50.9l139.8 139.8z" p-id="11646" fill="#d81e06"></path><path d="M924 742c-19.8 0-36 16.2-36 36v110H136V778c0-19.8-16.2-36-36-36s-36 16.2-36 36v110c0 39.8 32.2 72 72 72h752c39.8 0 72-32.2 72-72V778c0-19.8-16.2-36-36-36z" p-id="11647" fill="#d81e06"></path></svg>