<?xml version="1.0" standalone="no"?><!DOCTYPE svg PUBLIC "-//W3C//DTD SVG 1.1//EN" "http://www.w3.org/Graphics/SVG/1.1/DTD/svg11.dtd"><svg t="1533279267141" class="icon" style="" viewBox="0 0 1024 1024" version="1.1" xmlns="http://www.w3.org/2000/svg" p-id="10341" xmlns:xlink="http://www.w3.org/1999/xlink" width="128" height="128"><defs><style type="text/css"></style></defs><path d="M511.497588 72.134472c-241.476075 0-437.223071 195.746996-437.223071 437.213483s195.746996 437.213483 437.223071 437.213483c241.484704 0 437.232659-195.746996 437.232659-437.213483S752.982292 72.134472 511.497588 72.134472zM510.916554 882.413783c-201.228464 0-373.939296-172.709873-373.939296-373.928749 0-201.219835 172.710831-373.930667 373.939296-373.930667 201.241888 0 373.952719 172.710831 373.952719 373.930667C884.869273 709.70391 712.158442 882.413783 510.916554 882.413783z" p-id="10342" fill="#d81e06"></path><path d="M699.38433 509.385348c0-11.533423-5.483386-21.781094-13.977408-28.295191l0-0.030682-2.5763-1.945408-0.000959-0.000959-12.773154-9.620614 0.014382-0.020135-214.57594-162.229213c-6.095101-4.875506-13.822082-7.796974-22.232689-7.796974-19.68036 0-35.635775 15.955416-35.635775 35.634816 0 0.598292 0.0163 1.192749 0.045064 1.783371l-0.002876 0.001918 0 345.227026 0.038352 0.020135c-0.021094 0.498577-0.038352 0.998112-0.038352 1.501483 0 19.681318 15.954457 35.636734 35.634816 35.636734 8.036674 0 15.450127-2.663551 21.411955-7.150742l0 0 209.793438-158.614532-0.001918-0.003835 3.231161-2.437273 6.61573-5.001109 0.006712 0.005753 3.025019-2.280989 0.027805-0.035476 7.527551-5.690487c0.107386-0.081498 0.214772-0.162037 0.322157-0.244494l0.051775-0.038352 0-0.001918C693.862592 531.250816 699.38433 520.968629 699.38433 509.385348zM456.16803 637.676824 456.16803 381.076614l169.673348 128.297228L456.16803 637.676824z" p-id="10343" fill="#d81e06"></path></svg>