<?xml version="1.0" standalone="no"?><!DOCTYPE svg PUBLIC "-//W3C//DTD SVG 1.1//EN" "http://www.w3.org/Graphics/SVG/1.1/DTD/svg11.dtd"><svg t="1533279661713" class="icon" style="" viewBox="0 0 1024 1024" version="1.1" xmlns="http://www.w3.org/2000/svg" p-id="42357" xmlns:xlink="http://www.w3.org/1999/xlink" width="128" height="128"><defs><style type="text/css"></style></defs><path d="M431.271958 592.005644c-149.536508 0-270.899471-121.724162-270.899471-270.899471 0-149.536508 121.724162-270.899471 270.899471-270.899471 149.536508 0 270.899471 121.724162 270.899471 270.899471 0.361199 149.175309-121.362963 270.899471-270.899471 270.899471m0-498.816226c-125.697354 0-227.555556 102.2194-227.555556 227.555556s102.2194 227.555556 227.555556 227.555555c125.697354 0 227.555556-102.2194 227.555555-227.555555s-101.858201-227.555556-227.555555-227.555556" fill="#d81e06" p-id="42358"></path><path d="M630.292769 576.112875c-17.698765-13.003175-36.481129-24.561552-55.985891-33.952734l19.143563-38.648324c21.671958 10.835979 42.621517 23.477954 62.126279 37.925926l-25.283951 34.675132zM68.989065 883.132275h-43.343915c0-79.463845 22.755556-158.56649 65.738272-226.471958 41.899118-66.099471 100.774603-119.195767 170.847266-153.870899l19.143562 38.287125c-130.754145 65.015873-212.385185 197.576014-212.385185 342.055732" fill="#d81e06" p-id="42359"></path><path d="M877.714286 979.211287l-155.676896-81.992239-156.038095 81.63104 29.979541-173.73686-126.058554-123.16896 174.459259-25.283951 78.019048-157.844091 77.657848 158.205291 174.45926 25.64515-126.419753 122.80776 29.618342 173.73686z m-155.676896-131.115343l98.246208 52.012698-18.782363-109.443386 79.825044-77.657849-109.804586-16.253968-49.123104-99.691005-49.484303 99.691005-110.165785 15.892769 79.463845 77.657848-18.782364 109.443387 98.607408-51.651499z" fill="#d81e06" p-id="42360"></path></svg>