<?xml version="1.0" standalone="no"?><!DOCTYPE svg PUBLIC "-//W3C//DTD SVG 1.1//EN" "http://www.w3.org/Graphics/SVG/1.1/DTD/svg11.dtd"><svg t="1533279417189" class="icon" style="" viewBox="0 0 1024 1024" version="1.1" xmlns="http://www.w3.org/2000/svg" p-id="13610" xmlns:xlink="http://www.w3.org/1999/xlink" width="128" height="128"><defs><style type="text/css"></style></defs><path d="M876.547502 733.807986C916.962119 667.517949 938.666667 591.318901 938.666667 512 938.666667 276.358507 747.641492 85.333333 512 85.333333 276.358507 85.333333 85.333333 276.358507 85.333333 512 85.333333 587.295832 104.88777 659.810241 141.514484 723.761442 149.321906 737.393405 166.701963 742.115129 180.333926 734.307706 193.96589 726.500284 198.687614 709.120228 190.880191 695.488265 159.151077 640.0884 142.222222 577.310529 142.222222 512 142.222222 307.777372 307.777372 142.222222 512 142.222222 716.222626 142.222222 881.777778 307.777372 881.777778 512 881.777778 580.796791 862.988029 646.762741 827.973988 704.194486 819.796446 717.607691 824.040789 735.110451 837.453995 743.287993 850.8672 751.465535 868.36996 747.221191 876.547502 733.807986ZM730.721468 632.56169C754.972803 592.783462 768 547.048343 768 499.468518 768 358.083623 653.384895 243.468519 512 243.468519 370.615105 243.468519 256 358.083623 256 499.468518 256 544.634416 267.736589 588.157622 289.715625 626.533595 297.523047 640.165558 314.903104 644.887282 328.535067 637.079859 342.167031 629.272437 346.888755 611.89238 339.081333 598.260417 321.999896 568.43578 312.888889 534.649114 312.888889 499.468518 312.888889 389.50249 402.033971 300.357408 512 300.357408 621.966029 300.357408 711.111111 389.50249 711.111111 499.468518 711.111111 536.526234 700.99871 572.028254 682.147954 602.94819 673.970412 616.361395 678.214756 633.864155 691.627961 642.041697 705.041166 650.219238 722.543926 645.974895 730.721468 632.56169ZM455.111111 938.666667C502.239408 938.666667 540.444444 906.829138 540.444444 867.555556 540.444444 828.281973 502.239408 796.444444 455.111111 796.444444 407.982814 796.444444 369.777778 828.281973 369.777778 867.555556 369.777778 906.829138 407.982814 938.666667 455.111111 938.666667Z" p-id="13611" fill="#d81e06"></path><path d="M449.094531 750.861685C375.586637 750.861685 313.618576 799.390325 313.618576 863.125015 313.618576 926.859702 375.586637 975.388342 449.094531 975.388342 522.602425 975.388342 584.570487 926.859702 584.570487 863.125015 584.570487 799.390325 522.602425 750.861685 449.094531 750.861685L449.094531 750.861685ZM449.094531 807.750574C493.810378 807.750574 527.681599 834.27592 527.681599 863.125015 527.681599 891.974107 493.810378 918.499453 449.094531 918.499453 404.378684 918.499453 370.507466 891.974107 370.507466 863.125015 370.507466 834.27592 404.378684 807.750574 449.094531 807.750574L449.094531 807.750574Z" p-id="13612" fill="#d81e06"></path><path d="M584.617298 845.407414 593.966783 528.43557C594.429952 512.732968 582.07595 499.628021 566.373345 499.164851 550.67074 498.701685 537.565793 511.055687 537.102626 526.758289L527.753139 843.730136C527.289973 859.432738 539.643975 872.537685 555.34658 873.000855 571.049182 873.464021 584.154129 861.110019 584.617298 845.407414L584.617298 845.407414ZM637.368971 477.880695C622.799889 480.02907 610.099769 482.720717 598.127511 486.022124 588.768458 488.602928 566.74281 496.026823 563.68714 496.769789 548.422446 500.481308 539.056748 515.86457 542.768267 531.129264 546.479787 546.393961 561.863046 555.759659 577.127743 552.048139 583.144257 550.585262 606.295731 542.781898 613.250449 540.8641 622.999646 538.175713 633.422174 535.966777 645.668133 534.160973 661.209503 531.869221 671.950441 517.412622 669.658689 501.871252 667.36694 486.329884 652.910342 475.588944 637.368971 477.880695L637.368971 477.880695Z" p-id="13613" fill="#d81e06"></path></svg>