<?xml version="1.0" standalone="no"?><!DOCTYPE svg PUBLIC "-//W3C//DTD SVG 1.1//EN" "http://www.w3.org/Graphics/SVG/1.1/DTD/svg11.dtd"><svg t="1533285227745" class="icon" style="" viewBox="0 0 1024 1024" version="1.1" xmlns="http://www.w3.org/2000/svg" p-id="4116" xmlns:xlink="http://www.w3.org/1999/xlink" width="128" height="128"><defs><style type="text/css"></style></defs><path d="M511.562025 356.183212c-86.516446 0-156.907633 69.14787-156.907633 154.139589 0 84.99479 70.387094 154.142659 156.907633 154.142659 86.518492 0 156.907633-69.152986 156.907633-154.142659C668.469658 425.330058 598.080517 356.183212 511.562025 356.183212zM511.562025 621.278869c-62.279439 0-112.952538-49.77566-112.952538-110.956068 0-61.183478 50.6731-110.964254 112.952538-110.964254 62.281485 0 112.949468 49.780777 112.949468 110.964254C624.511493 571.504232 573.84351 621.278869 511.562025 621.278869zM854.078982 396.962987l-18.882046 0-2.200108-5.757121-0.103354-0.215918c-0.208754-0.424672-0.407276-0.852414-0.588401-1.306762l-0.034792-0.082888c-2.695389-6.90527-5.206582-12.869099-7.679913-18.240433l-2.604314-5.664 13.361309-13.147438c19.836791-19.48068 30.762631-45.38363 30.762631-72.936149 0-27.557636-10.92584-53.467749-30.762631-72.960709l-14.671141-14.412244c-19.836791-19.485797-46.208415-30.212092-74.260308-30.212092-28.0478 0-54.4184 10.727319-74.248028 30.206976l-13.371542 13.145391-5.77247-2.561335c-5.907547-2.62478-12.496615-5.27719-20.141736-8.109702l-5.924943-2.191922 0-18.671245c0-56.882522-47.107901-103.160521-105.010659-103.160521l-20.761859 0c-57.902758 0-105.013729 46.278-105.013729 103.160521l0 18.671245-5.928013 2.191922c-7.619538 2.825348-14.20349 5.475711-20.131503 8.109702l-5.7694 2.561335-13.381775-13.140275c-19.827581-19.485797-46.198182-30.212092-74.248028-30.212092-28.0478 0-54.4184 10.727319-74.251098 30.212092l-14.681374 14.417361c-19.831674 19.487843-30.757514 45.398979-30.757514 72.955592 0 27.552519 10.92584 53.458539 30.762631 72.943312l13.368472 13.145391-2.614547 5.669116c-2.486634 5.39487-4.930289 11.189853-7.702426 18.286482-0.188288 0.474814-0.400113 0.923022-0.607844 1.362021l-0.100284 0.210801-2.209318 5.734608-18.866696 0c-57.904805 0-105.013729 46.281069-105.013729 103.160521l0 20.397562c0 56.879452 47.107901 103.158475 105.013729 103.158475l18.887163 0 2.200108 5.762237 0.093121 0.201591c0.210801 0.440022 0.417509 0.88209 0.626263 1.404999 2.699482 6.918573 5.211698 12.881378 7.682983 18.23327l2.614547 5.664-13.373589 13.152555c-19.831674 19.482727-30.757514 45.38363-30.757514 72.938196 0 27.557636 10.92584 53.465702 30.757514 72.953545l14.681374 14.422478c19.831674 19.47761 46.203298 30.206976 74.256214 30.206976 28.049846 0 54.416354-10.729365 74.242911-30.206976l13.381775-13.142322 5.771447 2.559289c5.938246 2.63706 12.519128 5.28947 20.128433 8.102538l5.928013 2.194992 0 18.675338c0 56.882522 47.115064 103.160521 105.018845 103.160521l20.757766 0c57.902758 0 105.010659-46.278 105.010659-103.160521l0-18.675338 5.933129-2.194992c7.626701-2.823302 14.21577-5.470595 20.133549-8.102538l5.77247-2.559289 13.371542 13.142322c19.829628 19.47761 46.200228 30.206976 74.248028 30.206976 28.049846 0 54.423517-10.729365 74.260308-30.206976l14.671141-14.417361c19.836791-19.49296 30.762631-45.401026 30.762631-72.958662 0-27.554566-10.92584-53.455469-30.764678-72.943312l-13.359262-13.142322 2.604314-5.666046c2.486634-5.39487 4.997827-11.357675 7.702426-18.286482 0.183172-0.472767 0.38988-0.914836 0.605797-1.354857l0.093121-0.191358 2.184759-5.771447 18.902512 0c57.904805 0 105.013729-46.278 105.013729-103.158475L959.095781 500.123508C959.091688 443.244057 911.983787 396.962987 854.078982 396.962987zM915.13864 520.513908c0 3.89368-0.407276 7.840572-1.194198 11.669784-0.296759 1.508353-0.726547 2.783393-1.073448 3.815909-0.10847 0.314155-0.213871 0.62831-0.314155 0.947582l-0.26913 0.952698c-0.434905 1.561565-0.925069 3.333932-1.704828 5.220908-0.812505 1.933025-1.765203 3.622504-2.607384 5.110391l-0.515746 0.917906c-0.148379 0.264013-0.286526 0.538259-0.427742 0.814552-0.424672 0.816598-0.945535 1.829671-1.661849 2.89391-1.669012 2.541893-3.554966 4.776793-5.180999 6.632047l-0.065492 0.070608c-0.065492 0.077771-0.127913 0.163729-0.191358 0.243547-0.298805 0.379647-0.706081 0.904603-1.24741 1.468444-2.106987 2.217505-4.487198 4.319375-7.312546 6.466272-0.2415 0.203638-0.488117 0.400113-0.74906 0.588401-8.956999 6.628978-19.711947 10.663874-31.061436 11.666714-0.424672 0.042979-0.844228 0.098237-1.261737 0.158612-1.151219 0.150426-2.583848 0.346901-4.223185 0.346901l-51.603285 0c-7.063883 27.997658-18.882046 55.443753-35.215036 81.777515l37.009915 36.34579c9.321296 9.15859 15.239076 20.942985 17.104563 34.119075 0.042979 0.288572 0.070608 0.571005 0.095167 0.890276 0.445138 3.514033 0.605797 6.674003 0.490164 9.588379-0.027629 0.792039-0.10847 1.473561-0.168846 1.968841-0.022513 0.146333-0.037862 0.284479-0.048095 0.405229-0.193405 2.481518-0.455371 5.382591-1.111311 8.278547-0.258896 1.161453-0.595564 2.191922-0.867764 3.021823-0.103354 0.321318-0.210801 0.645706-0.309038 0.973164 0 0-0.243547 0.829901-0.352017 1.196245-0.469698 1.591241-1.000793 3.396353-1.815345 5.281283-0.769526 1.805112-1.674129 3.381004-2.481518 4.776793-0.181125 0.312108-0.35918 0.62831-0.581238 1.013073-0.188288 0.331551-0.364297 0.673335-0.540306 1.01819-0.464581 0.895393-1.038656 2.013867-1.832741 3.177366-2.27481 3.341095-4.823865 6.40999-7.584746 9.127891l-14.696724 14.434757c-2.747577 2.685155-5.857405 5.184069-9.246595 7.41897l-0.090051 0.062422c-1.156336 0.743944-2.269693 1.299599-3.162016 1.746784-0.36225 0.178055-0.721431 0.35918-1.056052 0.540306l-0.842181 0.467651c-1.475608 0.821715-3.152806 1.762133-4.999874 2.51938-1.88493 0.783853-3.665483 1.294482-5.241374 1.741667-0.417509 0.115634-0.835018 0.23843-1.249457 0.36225l-0.196475 0.055259c-0.324388 0.088004-0.645706 0.193405-0.968048 0.293689-0.826831 0.260943-1.860371 0.585331-3.044336 0.829901-3.01159 0.653893-5.947456 0.928139-8.432043 1.111311l-0.095167 0.010233c-0.143263 0.007163-0.289596 0.027629-0.429789 0.042979-0.464581 0.053212-1.090844 0.11768-1.817392 0.146333-0.686638 0.029676-1.372254 0.039909-2.064009 0.039909-2.38021 0-4.944616-0.168846-7.826246-0.517793l-0.060375-0.010233c-0.274246-0.020466-0.550539-0.048095-0.826831-0.088004-13.356193-1.832741-25.345248-7.636934-34.678824-16.790408l-36.954657-36.298717c-26.825972 16.086373-54.780651 27.713178-83.296101 34.649148l0 50.571792c0 1.593288-0.193405 2.996241-0.346901 4.119831-0.058328 0.409322-0.11768 0.821715-0.155543 1.232061-1.030469 11.17655-5.125741 21.715581-11.847839 30.501688-0.141216 0.188288-0.289596 0.369414-0.447185 0.560772l-0.1361 0.172939c-2.219551 2.802836-4.386914 5.161556-6.628978 7.212262-0.605797 0.560772-1.149173 0.975211-1.548262 1.279133-0.090051 0.070608-0.181125 0.13303-0.271176 0.205685-2.026146 1.719154-4.253884 3.529383-6.780427 5.118578-1.028423 0.659009-2.010797 1.151219-2.800789 1.548262-0.301875 0.150426-0.600681 0.303922-0.914836 0.472767l-0.669242 0.367367c-1.589195 0.864694-3.38919 1.842974-5.417383 2.690272l-0.13303 0.053212c-1.855254 0.73678-3.645017 1.221828-5.226025 1.6465l-1.043772 0.286526c-0.372483 0.103354-0.738827 0.226151-1.108241 0.344854-0.992607 0.319272-2.219551 0.716314-3.645017 0.992607-3.979638 0.781806-7.997138 1.178849-11.933797 1.178849l-20.757766 0c-3.934612 0-7.949043-0.397043-11.930727-1.178849-1.423419-0.274246-2.642177-0.669242-3.620457-0.985444-0.37453-0.11768-0.747014-0.2415-1.151219-0.357134l-1.043772-0.281409c-1.575892-0.424672-3.361561-0.909719-5.211698-1.644453l-0.127913-0.055259c-2.033309-0.844228-3.838422-1.829671-5.429663-2.694365l-0.673335-0.372483c-0.296759-0.158612-0.595564-0.306992-0.89744-0.460488-0.794086-0.394996-1.777483-0.892323-2.768043-1.52575-2.662643-1.674129-4.91187-3.527336-6.792707-5.115508-0.090051-0.075725-0.186242-0.143263-0.279363-0.215918-0.412392-0.314155-0.970094-0.741897-1.584078-1.309832-2.240017-2.053776-4.40431-4.40738-6.611581-7.199982l-0.042979-0.057305c-0.13303-0.153496-0.339738-0.400113-0.571005-0.719384-6.709819-8.786107-10.796904-19.313881-11.813047-30.42801-0.039909-0.412392-0.098237-0.821715-0.155543-1.232061-0.158612-1.133823-0.352017-2.543939-0.352017-4.15053l0-50.571792c-28.52773-6.943133-56.482409-18.569938-83.296101-34.649148l-36.959773 36.307927c-9.331529 9.148357-21.325701 14.950504-34.656311 16.780175-0.279363 0.039909-0.548492 0.065492-0.854461 0.088004l-0.050142 0.005117c-2.880607 0.354064-5.439896 0.522909-7.830339 0.522909-0.686638 0-1.37737-0.010233-2.069125-0.039909-0.721431-0.027629-1.347694-0.093121-1.812275-0.148379-0.141216-0.017396-0.286526-0.032746-0.427742-0.039909l-0.095167-0.010233c-2.481518-0.183172-5.417383-0.457418-8.43409-1.111311-1.176802-0.243547-2.197038-0.567935-3.021823-0.824785-0.326435-0.103354-0.648776-0.208754-0.980327-0.296759l-0.218988-0.062422c-0.424672-0.125867-0.849344-0.248663-1.274016-0.367367-1.563612-0.447185-3.335978-0.952698-5.13802-1.706875-1.90028-0.776689-3.560082-1.704828-5.01727-2.523473l-0.86981-0.483001c-0.354064-0.193405-0.716314-0.372483-1.075495-0.552585-0.895393-0.442068-2.00875-1.000793-3.240811-1.796926-3.391237-2.232854-6.506181-4.733814-9.271154-7.441483l-14.681374-14.429641c-2.778276-2.727111-5.327332-5.799076-7.576559-9.115612-0.799202-1.171686-1.375324-2.285043-1.837858-3.182482-0.176009-0.341784-0.346901-0.683569-0.565888-1.063215l-0.517793-0.899486c-0.816598-1.415232-1.746784-3.021823-2.523473-4.859681-0.809435-1.87265-1.337461-3.667529-1.805112-5.248537-0.10847-0.372483-0.369414-1.249457-0.369414-1.249457-0.095167-0.331551-0.205685-0.661056-0.312108-0.988514-0.26913-0.814552-0.598634-1.825578-0.842181-2.925632-0.645706-2.868327-0.919952-5.696746-1.121544-8.321526-0.007163-0.143263-0.032746-0.286526-0.048095-0.429789-0.060375-0.479931-0.138146-1.140986-0.163729-1.90335-0.12075-2.930749 0.037862-6.068206 0.483001-9.552563 0.025583-0.346901 0.058328-0.700965 0.113587-1.058099 1.87265-13.114692 7.77815-24.882714 17.092283-34.028001l37.001729-36.340673c-16.33299-26.335808-28.151154-53.784974-35.20992-81.782631l-51.603285 0c-1.639337 0-3.069919-0.191358-4.218068-0.346901-0.417509-0.055259-0.837064-0.113587-1.232061-0.153496-11.390421-1.007957-22.140253-5.037736-31.092136-11.669784-0.2415-0.173962-0.469698-0.352017-0.714268-0.555655-2.790556-2.114151-5.193279-4.235464-7.345292-6.488785-0.548492-0.576121-0.970094-1.116427-1.251503-1.475608-0.053212-0.067538-0.105401-0.1361-0.158612-0.203638l-0.113587-0.125867c-1.626034-1.860371-3.50994-4.105504-5.173836-6.621814-0.693802-1.045819-1.209548-2.036379-1.62194-2.835581-0.146333-0.281409-0.291642-0.562818-0.462534-0.871857l-0.502443-0.892323c-0.847298-1.49812-1.805112-3.194762-2.626827-5.16565-0.774643-1.862417-1.269923-3.64297-1.709945-5.216815l-0.260943-0.940418c-0.100284-0.326435-0.205685-0.645706-0.314155-0.968048-0.348947-1.01819-0.771573-2.292206-1.050935-3.717671-0.804319-3.901867-1.206478-7.848759-1.206478-11.735275l0-20.387329c0-3.876284 0.402159-7.826246 1.189082-11.666714 0.296759-1.503237 0.728594-2.780323 1.073448-3.805676 0.110517-0.324388 0.218988-0.648776 0.319272-0.973164 0.098237-0.339738 0.193405-0.681522 0.284479-1.020236 0.429789-1.541099 0.919952-3.285836 1.684362-5.132904 0.811482-1.941212 1.76725-3.62762 2.607384-5.120624l0.517793-0.923022c0.155543-0.274246 0.301875-0.562818 0.447185-0.842181 0.417509-0.804319 0.930185-1.802042 1.63115-2.847861 1.629103-2.486634 3.434216-4.618181 5.14109-6.594185l0.130983-0.143263c0.062422-0.077771 0.11768-0.153496 0.178055-0.226151 0.289596-0.36225 0.714268-0.899486 1.27197-1.478677 2.14485-2.257413 4.545526-4.386914 7.345292-6.501064 0.221034-0.188288 0.452301-0.369414 0.693802-0.548492 8.946766-6.616698 19.696598-10.648524 31.083949-11.661597 0.427742-0.037862 0.849344-0.095167 1.269923-0.150426 1.13894-0.153496 2.559289-0.344854 4.185322-0.344854l51.603285 0c7.066953-28.009937 18.878976-55.459103 35.20992-81.782631l-37.001729-36.34579c-9.314133-9.148357-15.223726-20.915355-17.092283-34.025954-0.055259-0.348947-0.088004-0.686638-0.113587-1.052982-0.445138-3.501754-0.603751-6.632047-0.483001-9.562796 0.025583-0.759293 0.103354-1.418302 0.163729-1.898233 0.01535-0.141216 0.039909-0.286526 0.048095-0.424672 0.201591-2.629897 0.474814-5.455245 1.111311-8.275477 0.258896-1.163499 0.593518-2.194992 0.862647-3.021823 0.10847-0.321318 0.215918-0.653893 0.309038-0.980327 0 0 0.25378-0.844228 0.36225-1.216711 0.469698-1.594311 0.997724-3.3984 1.802042-5.241374 0.788969-1.855254 1.734504-3.489474 2.566452-4.932336l0.502443-0.876973c0.193405-0.331551 0.367367-0.673335 0.543376-1.01512 0.460488-0.89744 1.035586-2.010797 1.829671-3.180436 2.257413-3.318582 4.809539-6.385431 7.586792-9.125845l14.683421-14.432711c2.735297-2.676969 5.847172-5.175883 9.255805-7.426133l0.082888-0.055259c1.156336-0.747014 2.269693-1.297552 3.157923-1.744737 0.35918-0.178055 0.724501-0.35918 1.093914-0.562818l0.923022-0.50756c1.437745-0.802272 3.069919-1.714038 4.894474-2.466168 1.898233-0.792039 3.698229-1.302669 5.284353-1.75497 0.407276-0.113587 0.812505-0.229221 1.218758-0.348947l0.181125-0.050142c0.326435-0.088004 0.648776-0.193405 0.970094-0.293689 0.831948-0.264013 1.862417-0.585331 3.051499-0.831948 3.051499-0.661056 6.045693-0.932232 8.335852-1.088798 0.125867-0.01228 0.248663-0.029676 0.372483-0.042979 0.538259-0.065492 1.269923-0.155543 2.071172-0.181125 0.62831-0.022513 1.261737-0.032746 1.893116-0.032746 2.450818 0 4.985548 0.163729 7.730055 0.500397 0.271176 0.01535 0.695848 0.042979 1.201361 0.11768 13.326517 1.834788 25.292036 7.636934 34.621519 16.778128l36.956703 36.303834c26.808576-16.081257 54.763255-27.711132 83.290985-34.651194l0-50.571792c0-1.608637 0.198521-3.016707 0.352017-4.143367 0.058328-0.409322 0.115634-0.816598 0.155543-1.201361 1.020236-11.162224 5.113461-21.700231 11.83249-30.491455 0.173962-0.229221 0.348947-0.447185 0.543376-0.681522l0.055259-0.065492c2.222621-2.813069 4.386914-5.170766 6.618744-7.210215 0.607844-0.567935 1.163499-0.99056 1.575892-1.302669 0.093121-0.070608 0.193405-0.143263 0.243547-0.183172 2.038426-1.734504 4.278443-3.554966 6.782473-5.123694 1.030469-0.655939 2.015913-1.151219 2.807952-1.551332 0.301875-0.148379 0.600681-0.298805 0.892323-0.455371l0.560772-0.309038c1.644453-0.902556 3.50994-1.922792 5.613858-2.77009 1.895163-0.771573 3.717671-1.264806 5.322216-1.699712l0.983397-0.26913c0.3776-0.105401 0.75213-0.229221 1.121544-0.352017 0.99056-0.317225 2.222621-0.714268 3.665483-0.992607 3.974521-0.779759 7.988951-1.171686 11.92868-1.171686l20.761859 0c3.943822 0 7.951089 0.391926 11.92868 1.171686 1.442862 0.279363 2.685155 0.681522 3.687996 1.00591 0.364297 0.11768 0.733711 0.23843 1.080611 0.334621l1.00284 0.279363c1.606591 0.432859 3.426029 0.923022 5.301749 1.686409 2.081405 0.837064 3.906983 1.837858 5.51255 2.714831l0.673335 0.372483c0.296759 0.158612 0.600681 0.306992 0.900509 0.460488 0.786922 0.394996 1.769296 0.892323 2.745531 1.51347 2.586918 1.62194 4.818749 3.436262 6.797823 5.118578 0.095167 0.080841 0.193405 0.153496 0.289596 0.226151 0.402159 0.306992 0.952698 0.724501 1.553379 1.284249 2.236947 2.033309 4.409426 4.397147 6.641257 7.217379l0.080841 0.105401c0.176009 0.205685 0.346901 0.417509 0.51063 0.64059 6.716982 8.786107 10.815323 19.329231 11.840676 30.486338 0.037862 0.414439 0.098237 0.829901 0.155543 1.242294 0.153496 1.12359 0.346901 2.51631 0.346901 4.112668l0 50.571792c28.52773 6.941086 56.487525 18.569938 83.301218 34.651194l36.959773-36.305881c9.31925-9.138124 21.292955-14.942317 34.626635-16.778128 0.497327-0.072655 0.907673-0.100284 1.166569-0.115634 2.75474-0.336668 5.299703-0.500397 7.752568-0.500397 0.63138 0 1.25662 0.007163 1.845021 0.027629 0.844228 0.027629 1.575892 0.12075 2.109034 0.181125 0.122797 0.017396 0.25378 0.034792 0.376577 0.048095 2.295276 0.155543 5.291516 0.427742 8.349155 1.093914 1.189082 0.243547 2.222621 0.567935 3.061732 0.831948 0.317225 0.098237 0.633427 0.205685 0.955768 0.293689 0 0 0.952698 0.274246 1.352811 0.38681 1.598404 0.452301 3.413749 0.968048 5.272074 1.74269 1.890047 0.776689 3.529383 1.691525 4.980431 2.50096l0.89744 0.49528c0.357134 0.201591 0.721431 0.379647 1.080611 0.560772 0.890276 0.440022 1.998517 0.995677 3.14769 1.732457l0.110517 0.072655c3.396353 2.245134 6.503111 4.738931 9.250688 7.42818l14.691607 14.434757c2.747577 2.704598 5.291516 5.77247 7.562233 9.103332 0.799202 1.168616 1.370207 2.272763 1.825578 3.165086 0.181125 0.344854 0.352017 0.683569 0.545422 1.01819l0.565888 0.99056c0.819668 1.422396 1.741667 3.028986 2.491751 4.786003 0.824785 1.90028 1.359974 3.712555 1.827625 5.317099 0.10847 0.364297 0.36225 1.201361 0.36225 1.201361 0.093121 0.329505 0.201591 0.655939 0.306992 0.978281 0.274246 0.831948 0.605797 1.860371 0.847298 2.954285 0.673335 2.961448 0.935302 5.855358 1.12359 8.325619 0.01535 0.138146 0.029676 0.276293 0.048095 0.422625 0.065492 0.493234 0.146333 1.171686 0.172939 1.870604 0.11768 2.968611-0.039909 6.138814-0.49528 9.69071-0.017396 0.281409-0.048095 0.567935-0.095167 0.923022-1.860371 13.130042-7.773034 24.912389-17.099447 34.081213l-37.009915 36.340673c16.32992 26.323529 28.148084 53.769624 35.215036 81.782631l51.603285 0c1.626034 0 3.046383 0.191358 4.185322 0.344854 0.422625 0.055259 0.844228 0.113587 1.264806 0.150426 11.380188 1.00591 22.124903 5.037736 31.089066 11.661597 0.243547 0.178055 0.477884 0.367367 0.724501 0.571005 2.807952 2.12643 5.203512 4.250814 7.320733 6.485715 0.555655 0.576121 0.983397 1.116427 1.27197 1.473561 0.057305 0.077771 0.122797 0.163729 0.148379 0.193405l0.150426 0.168846c1.701758 1.970888 3.501754 4.105504 5.132904 6.581905 0.724501 1.073448 1.254573 2.101871 1.679245 2.926656 0.1361 0.274246 0.279363 0.548492 0.402159 0.771573l0.467651 0.829901c0.864694 1.520633 1.842974 3.25002 2.685155 5.26184 0.743944 1.810229 1.226944 3.541663 1.651616 5.070482 0.100284 0.344854 0.193405 0.691755 0.291642 1.033539 0.098237 0.319272 0.205685 0.64059 0.319272 0.957815 0.346901 1.033539 0.783853 2.317789 1.068332 3.765767 0.799202 3.901867 1.206478 7.848759 1.206478 11.730159L915.134547 520.513908z" p-id="4117" fill="#8a8a8a"></path></svg>