<?xml version="1.0" standalone="no"?><!DOCTYPE svg PUBLIC "-//W3C//DTD SVG 1.1//EN" "http://www.w3.org/Graphics/SVG/1.1/DTD/svg11.dtd"><svg t="1533371104252" class="icon" style="" viewBox="0 0 1024 1024" version="1.1" xmlns="http://www.w3.org/2000/svg" p-id="6395" xmlns:xlink="http://www.w3.org/1999/xlink" width="48" height="48"><defs><style type="text/css"></style></defs><path d="M512.816 530.704c-101.456 0-184-82.704-184-184.352 0-101.664 82.544-184.368 184-184.368s184 82.704 184 184.368c0 101.648-82.544 184.352-184 184.352z m0-336.736c-83.808 0-152 68.352-152 152.368s68.192 152.352 152 152.352 152-68.336 152-152.352-68.192-152.368-152-152.368z" p-id="6396" fill="#bfbfbf"></path><path d="M730.72 876.992h-85.392v-32h85.392a78.72 78.72 0 0 0 67.216-36.56 80.592 80.592 0 0 0 5.808-77.168c-51.472-114.512-165.2-188.496-289.76-188.496h-4.976c-124.576 0-238.304 73.984-289.76 188.496a80.688 80.688 0 0 0 5.792 77.168 78.72 78.72 0 0 0 67.232 36.56H376v32h-83.728a111.632 111.632 0 0 1-94.096-51.168 112.528 112.528 0 0 1-8.112-107.68c56.608-125.968 181.792-207.376 318.944-207.376h4.976c137.136 0 262.336 81.408 318.96 207.376a112.56 112.56 0 0 1-8.128 107.68 111.68 111.68 0 0 1-94.096 51.168z" p-id="6397" fill="#bfbfbf"></path><path d="M496 752h32v128h-32z" p-id="6398" fill="#bfbfbf"></path><path d="M524.096 773.872h-25.184a51.472 51.472 0 0 1-51.408-51.408V665.28a51.472 51.472 0 0 1 51.408-51.408h25.184a51.472 51.472 0 0 1 51.408 51.408v57.184a51.472 51.472 0 0 1-51.408 51.408z m-25.184-128c-10.704 0-19.408 8.704-19.408 19.408v57.184c0 10.704 8.704 19.408 19.408 19.408h25.184c10.704 0 19.408-8.704 19.408-19.408V665.28c0-10.704-8.704-19.408-19.408-19.408h-25.184z" p-id="6399" fill="#bfbfbf"></path></svg>